<svg width="64" height="64" viewBox="0 0 64 64" fill="none" xmlns="http://www.w3.org/2000/svg">
<rect width="64" height="64" rx="12" fill="#111827"/>
<path d="M32.5 16.5L46 30V19C46 17.3431 44.6569 16 43 16H34C33.1716 16 32.5 16.5 32.5 16.5Z" fill="#FBBF24"/>
<path d="M24 44H44C45.1046 44 46 43.1046 46 42V30L32.5 16.5C32.5 16.5 32.5 16 31.5 16H21C19.3431 16 18 17.3431 18 19V41C18 42.6569 19.3431 44 21 44H24Z" fill="url(#paint0_linear_1_1)"/>
<path d="M18 29L32 29L32 44L21 44C19.3431 44 18 42.6569 18 41V29Z" fill="url(#paint1_linear_1_1)"/>
<path d="M46 30L32.5 16.5L32.5 44H44C45.1046 44 46 43.1046 46 42V30Z" fill="url(#paint2_linear_1_1)"/>
<defs>
<linearGradient id="paint0_linear_1_1" x1="18" y1="16" x2="46" y2="44" gradientUnits="userSpaceOnUse">
<stop stop-color="#34D399"/>
<stop offset="1" stop-color="#60A5FA"/>
</linearGradient>
<linearGradient id="paint1_linear_1_1" x1="18" y1="29" x2="32" y2="44" gradientUnits="userSpaceOnUse">
<stop stop-color="#F87171"/>
<stop offset="1" stop-color="#F472B6"/>
</linearGradient>
<linearGradient id="paint2_linear_1_1" x1="32.5" y1="16.5" x2="46" y2="44" gradientUnits="userSpaceOnUse">
<stop stop-color="#A78BFA"/>
<stop offset="1" stop-color="#3B82F6"/>
</linearGradient>
</defs>
</svg>
